<?xml version="1.0" standalone="no"?>
<!DOCTYPE svg PUBLIC "-//W3C//DTD SVG 20010904//EN"
 "http://www.w3.org/TR/2001/REC-SVG-20010904/DTD/svg10.dtd">
<svg version="1.0" xmlns="http://www.w3.org/2000/svg"
 width="259.000000pt" height="259.000000pt" viewBox="0 0 259.000000 259.000000"
 preserveAspectRatio="xMidYMid meet">
<metadata>
Created by potrace 1.11, written by Peter Selinger 2001-2013
</metadata>
<g transform="translate(0.000000,259.000000) scale(0.100000,-0.100000)"
fill="#000000" stroke="none">
<path d="M1220 2361 c-130 -12 -320 -60 -396 -100 -65 -34 -69 -38 -84 -88 -9
-29 -19 -55 -23 -59 -4 -4 -7 -16 -7 -26 0 -43 -36 -126 -74 -173 -23 -27 -47
-60 -53 -72 -7 -13 -18 -32 -25 -42 -14 -23 4 -51 33 -51 11 0 19 -7 19 -15 0
-8 -4 -15 -10 -15 -14 0 -60 -84 -60 -110 0 -37 40 -173 57 -192 8 -9 32 -20
54 -23 35 -6 40 -10 50 -48 22 -89 47 -117 155 -182 16 -10 16 -14 -1 -64 -21
-64 -15 -129 16 -173 15 -21 27 -28 41 -24 11 2 29 -1 39 -7 17 -10 18 -20 12
-94 -5 -73 -4 -86 13 -104 17 -19 26 -20 82 -15 68 7 79 -2 40 -34 -20 -15
-23 -27 -22 -76 2 -52 5 -61 33 -85 l31 -26 -21 -19 c-19 -17 -21 -27 -16 -84
7 -96 43 -207 75 -228 l25 -16 -24 -6 c-31 -7 -39 -62 -13 -91 16 -18 33 -19
230 -19 212 0 213 0 219 23 4 12 17 38 30 57 28 41 53 155 62 280 5 80 4 92
-12 104 -16 12 -16 13 -1 19 26 10 23 143 -4 173 l-21 21 60 7 c72 8 85 21 76
78 -3 24 -7 65 -8 93 -2 48 -1 50 28 55 21 4 31 12 33 27 2 17 9 21 30 20 l27
-2 -1 105 c-1 58 -2 160 -2 227 -1 109 -3 124 -21 142 -17 17 -20 29 -15 62 4
22 17 56 30 75 22 32 24 45 24 154 l0 118 -40 51 c-34 42 -40 58 -40 97 0 35
-7 55 -28 83 -16 20 -49 72 -75 116 -25 44 -66 103 -90 130 l-44 50 -159 1
c-88 1 -193 -2 -234 -5z"/>
</g>
</svg>
